<svg width="1440" height="420" viewBox="0 0 1440 420" xmlns="http://www.w3.org/2000/svg" xmlns:xlink="http://www.w3.org/1999/xlink"><title>Page 1</title><defs><path id="a" d="M0 0h1440v420H0z"/><path id="c" d="M172.27.452v171.483H.487V.452H172.27z"/></defs><g fill="none" fill-rule="evenodd"><mask id="b" fill="#fff"><use xlink:href="#a"/></mask><use fill="#EBEBEB" xlink:href="#a"/><g mask="url(#b)"><path d="M-29 239c33.689 0 61 27.313 61 61.004C32 333.694 4.689 361-29 361s-61-27.305-61-60.996M91 105c25.94 0 47 21.04 47 47.012C138 177.96 116.94 199 91 199s-47-21.04-47-46.988C44 126.04 65.06 105 91 105" fill="#FFF"/><path d="M240.5 69c2.479 0 4.5 2.015 4.5 4.504A4.503 4.503 0 0 1 240.5 78a4.503 4.503 0 0 1-4.5-4.496A4.505 4.505 0 0 1 240.5 69" fill="#0F4BEB"/><path d="M269.5 352c8.003 0 14.5 6.491 14.5 14.504 0 8.005-6.497 14.496-14.5 14.496s-14.5-6.491-14.5-14.496c0-8.013 6.497-14.504 14.5-14.504" fill="#FFF"/><path d="M373.5 339a5.501 5.501 0 0 1 0 11 5.501 5.501 0 0 1 0-11m74-73c8.003 0 14.5 6.491 14.5 14.504 0 8.005-6.497 14.496-14.5 14.496s-14.5-6.491-14.5-14.496c0-8.013 6.497-14.504 14.5-14.504" fill="#0F4BEB"/><path d="M469.5 29c9.67 0 17.5 7.838 17.5 17.5 0 9.67-7.83 17.5-17.5 17.5S452 56.17 452 46.5c0-9.662 7.83-17.5 17.5-17.5" fill="#000"/><path d="M488.504 199c7.459 0 13.496 6.044 13.496 13.504 0 7.452-6.037 13.496-13.496 13.496-7.46 0-13.504-6.044-13.504-13.496 0-7.46 6.044-13.504 13.504-13.504M509 284c33.689 0 61 27.313 61 61.004 0 33.69-27.311 60.996-61 60.996s-61-27.305-61-60.996S475.311 284 509 284" fill="#FFF"/><path d="M528.992 294c.544 0 .992.44.992.992a.99.99 0 0 1-.992.984.99.99 0 0 1-.992-.984c0-.552.448-.992.992-.992" fill="#000"/><path d="M548.5 60a5.5 5.5 0 1 1-5.5 5.496A5.5 5.5 0 0 1 548.5 60" fill="#FFF"/><path d="M568.5 142c47.222 0 85.5 38.278 85.5 85.5S615.722 313 568.5 313 483 274.722 483 227.5s38.278-85.5 85.5-85.5" fill="#B2B2B2"/><path d="M628.5 219c8.003 0 14.5 6.491 14.5 14.504 0 8.005-6.497 14.496-14.5 14.496s-14.5-6.491-14.5-14.496c0-8.013 6.497-14.504 14.5-14.504" fill="#0F4BEB"/><path d="M647.5 211c9.67 0 17.5 7.838 17.5 17.5 0 9.67-7.83 17.5-17.5 17.5s-17.5-7.83-17.5-17.5c0-9.662 7.83-17.5 17.5-17.5" fill="#000"/><path d="M667.504 228c7.459 0 13.496 6.044 13.496 13.496 0 7.46-6.037 13.504-13.496 13.504-7.46 0-13.504-6.044-13.504-13.504 0-7.452 6.044-13.496 13.504-13.496" fill="#0F4BEB"/><path d="M688 266c33.689 0 61 27.313 61 61.004 0 33.69-27.311 60.996-61 60.996s-61-27.305-61-60.996S654.311 266 688 266" fill="#FFF"/><path d="M726.5 232a5.501 5.501 0 0 1 0 11 5.501 5.501 0 0 1 0-11" fill="#0F4BEB"/><path d="M746.5-146c47.222 0 85.5 38.278 85.5 85.5S793.722 25 746.5 25 661-13.278 661-60.5s38.278-85.5 85.5-85.5m21 357c2.479 0 4.5 2.015 4.5 4.504a4.503 4.503 0 0 1-4.5 4.496 4.503 4.503 0 0 1-4.5-4.496 4.505 4.505 0 0 1 4.5-4.504m39-87c8.003 0 14.5 6.491 14.5 14.504 0 8.005-6.497 14.496-14.5 14.496s-14.5-6.491-14.5-14.496c0-8.013 6.497-14.504 14.5-14.504m22 133c9.67 0 17.5 7.838 17.5 17.5 0 9.67-7.83 17.5-17.5 17.5s-17.5-7.83-17.5-17.5c0-9.662 7.83-17.5 17.5-17.5m18-275c7.457 0 13.5 6.044 13.5 13.496C860 2.956 853.957 9 846.5 9S833 2.956 833-4.504C833-11.956 839.043-18 846.5-18" fill="#000"/><path d="M868 100c33.689 0 61 27.313 61 61.004 0 33.69-27.311 60.996-61 60.996s-61-27.305-61-60.996S834.311 100 868 100" fill="#FFF"/><path d="M905.5 334a5.5 5.5 0 1 1-5.5 5.496 5.5 5.5 0 0 1 5.5-5.496m61.5 23a1 1 0 1 1 0 2 1 1 0 0 1 0-2m18.504-5c8.005 0 14.496 6.491 14.496 14.504 0 8.005-6.491 14.496-14.496 14.496S971 374.509 971 366.504c0-8.013 6.499-14.504 14.504-14.504m20.996-80c9.67 0 17.5 7.838 17.5 17.5 0 9.67-7.83 17.5-17.5 17.5-9.662 0-17.5-7.83-17.5-17.5 0-9.662 7.838-17.5 17.5-17.5" fill="#000"/><path d="M1047 253c33.689 0 61 27.313 61 61.004 0 33.69-27.311 60.996-61 60.996s-61-27.305-61-60.996S1013.311 253 1047 253" fill="#B2B2B2"/><path d="M1066.992 7a.992.992 0 1 1 0 1.984.992.992 0 0 1 0-1.984m19.508 186a5.501 5.501 0 0 1 0 11 5.501 5.501 0 0 1 0-11" fill="#0F4BEB"/><path d="M1105.5-117c47.222 0 85.5 38.278 85.5 85.5S1152.722 54 1105.5 54 1020 15.722 1020-31.5s38.278-85.5 85.5-85.5m22 403c2.479 0 4.5 2.015 4.5 4.496a4.505 4.505 0 0 1-4.5 4.504 4.505 4.505 0 0 1-4.5-4.504 4.503 4.503 0 0 1 4.5-4.496" fill="#0F4BEB"/><path d="M1164.5 230c8.01 0 14.5 6.491 14.5 14.504 0 8.005-6.49 14.496-14.5 14.496-8.003 0-14.5-6.491-14.5-14.496 0-8.013 6.497-14.504 14.5-14.504" fill="#FFF"/><path d="M1205.504 252c7.459 0 13.496 6.044 13.496 13.504 0 7.452-6.037 13.496-13.496 13.496-7.452 0-13.504-6.044-13.504-13.496 0-7.46 6.052-13.504 13.504-13.504" fill="#FF2305"/><path d="M1225 128c33.689 0 61 27.313 61 61.004 0 33.69-27.311 60.996-61 60.996s-61-27.305-61-60.996S1191.311 128 1225 128" fill="#FFF"/><path d="M1245.992 100a.992.992 0 1 1 0 1.984.992.992 0 0 1 0-1.984" fill="#0F4BEB"/><path d="M1284.5 38c47.222 0 85.5 38.278 85.5 85.5s-38.278 85.5-85.5 85.5-85.5-38.278-85.5-85.5 38.278-85.5 85.5-85.5" fill="#FF2305"/><path d="M1305.5 266c2.479 0 4.5 2.015 4.5 4.504a4.503 4.503 0 0 1-4.5 4.496 4.503 4.503 0 0 1-4.5-4.496 4.505 4.505 0 0 1 4.5-4.504" fill="#000"/><path d="M1344.5 71c8.003 0 14.5 6.491 14.5 14.504 0 8.005-6.497 14.496-14.5 14.496s-14.5-6.491-14.5-14.496c0-8.013 6.497-14.504 14.5-14.504m39.004 164c7.452 0 13.496 6.044 13.496 13.504 0 7.452-6.044 13.496-13.496 13.496-7.46 0-13.504-6.044-13.504-13.496 0-7.46 6.044-13.504 13.504-13.504" fill="#FFF"/><path d="M1404 184c33.689 0 61 27.313 61 61.004 0 33.69-27.311 60.996-61 60.996s-61-27.305-61-60.996S1370.311 184 1404 184m19.992 217c.536 0 .992.44.992.992a.995.995 0 0 1-.992.984.99.99 0 0 1-.992-.984c0-.552.448-.992.992-.992" fill="#FFF"/><path d="M1443.5 173a5.501 5.501 0 0 1 0 11 5.501 5.501 0 0 1 0-11" fill="#000"/><g transform="translate(1378 130)"><mask id="d" fill="#fff"><use xlink:href="#c"/></mask><path d="M172.276 86.194c0 47.354-38.461 85.74-85.898 85.74-47.43 0-85.89-38.386-85.89-85.74C.487 38.839 38.947.452 86.377.452" fill="#000" mask="url(#d)"/></g><path d="M927.5 210c47.222 0 85.5 38.278 85.5 85.5S974.722 381 927.5 381 842 342.722 842 295.5s38.278-85.5 85.5-85.5" fill="#000"/></g></g></svg>